<?xml version="1.0" encoding="UTF-8"?>
<svg id="Layer_2" xmlns="http://www.w3.org/2000/svg" version="1.1" viewBox="0 0 2322.98 2009.32">
  <!-- Generator: Adobe Illustrator 30.6.0, SVG Export Plug-In . SVG Version: 2.1.4 Build 109)  -->
  <defs>
    <style>
      .st0 {
        fill: #231f20;
      }
    </style>
  </defs>
  <path class="st0" d="M2321.9,1759.37L1305.88,7.2c-.17-.8-.45-1.58-.87-2.31-1.42-2.47-4.05-4-6.91-4.01l-275.34-.88h-.03c-2.85,0-5.49,1.52-6.92,3.99L1.31,1757.17s-.04.05-.05.08c-.02.03-.03.06-.04.08l-.14.24c-1.43,2.47-1.43,5.52,0,8,.38.66.85,1.25,1.38,1.76l135.73,236.43c1.43,2.48,4.07,4.01,6.93,4.02l2029.25,1.55h0c2.2,0,4.27-.91,5.76-2.46.53-.5,1-1.08,1.39-1.73l140.36-237.68c1.47-2.49,1.48-5.58.03-8.08ZM1027.34,16.01l256.79.82L418.93,1518.91c-.36.62-.62,1.28-.8,1.95-.66,2.11-.43,4.42.7,6.37,1.43,2.47,4.06,4,6.92,4l111.29.12,163.32.66h.03c.93,0,1.84-.18,2.69-.48l913.95.96,124.8,218.14-1719.76,2.61L1027.34,16.01ZM714.52,1515.54l448.34-776.91,445.02,777.84-893.36-.93ZM149.75,1991.78l-127.55-222.19,1743.14.99h0c2.88,0,5.54-1.55,6.96-4.05,1.42-2.5,1.39-5.58-.09-8.05l-142.23-238.09c-.76-1.27-1.85-2.27-3.11-2.95l-454.32-794.09,126.26-217.56,297.64,513.59,564.03,973.94-2010.73-1.53ZM2174.69,1985.22l-565.12-975.12-303.73-524.45c-.29-.5-.64-.95-1.03-1.37-1.45-2.37-4.03-3.83-6.82-3.83h0c-2.86,0-5.49,1.53-6.92,4l-595.02,1031.08-158.94-.17-97.37-.39L1297.86,25.27l1007.85,1738.08-131.02,221.88Z"/>
</svg>