<?xml version="1.0" encoding="UTF-8"?>
<svg id="arm" xmlns="http://www.w3.org/2000/svg" version="1.1" viewBox="0 0 3783.9 1885.25">
  <path fill="#4f5151" d="M2074.81,655.3h-555.16c-9.39,0-17,7.61-17,17s7.61,17,17,17h86.88v55.22h10v-2.07l4.28,4.28v1.91h451.45L2074.81,655.3ZM1749.65,738.63l-49.34-49.34h100.72l-49.34,49.34h-2.04ZM1686.17,689.29l49.34,49.34h-105.13l49.34-49.34h6.46ZM1815.18,689.29h7.05l49.34,49.34h-105.72l49.34-49.34ZM1836.37,689.29h98.36l-49.18,49.18-49.18-49.18ZM1948.56,689.29h3.53l49.34,49.34h-101.89l49.18-49.18-.16-.16ZM1966.23,689.29h97.77l-48.89,48.89-48.89-48.89ZM1616.53,689.29h49.04l-49.04,49.04v-49.04ZM2028.81,738.63l44.96-44.96-1.23,44.96h-43.73Z"/>
</svg>
