<?xml version="1.0" encoding="UTF-8"?>
<svg id="Layer_1" xmlns="http://www.w3.org/2000/svg" version="1.1" xmlns:xlink="http://www.w3.org/1999/xlink" viewBox="0 0 1265.65 1281.38">
  <!-- Generator: Adobe Illustrator 30.6.0, SVG Export Plug-In . SVG Version: 2.1.4 Build 109)  -->
  <defs>
    <style>
      .st0 {
        fill: #fff;
      }

      .st1 {
        fill: url(#radial-gradient);
      }

      .st2 {
        fill: #e8e7e2;
      }

      .st3 {
        opacity: .06;
      }
    </style>
    <radialGradient id="radial-gradient" cx="632.83" cy="640.69" fx="632.83" fy="640.69" r="636.77" gradientUnits="userSpaceOnUse">
      <stop offset=".22" stop-color="#ffffc5" stop-opacity=".6"/>
      <stop offset=".29" stop-color="#ffffc5" stop-opacity=".58"/>
      <stop offset=".38" stop-color="#ffffc5" stop-opacity=".51"/>
      <stop offset=".5" stop-color="#ffffc5" stop-opacity=".39"/>
      <stop offset=".62" stop-color="#ffffc5" stop-opacity=".23"/>
      <stop offset=".75" stop-color="#ffffc5" stop-opacity=".03"/>
      <stop offset=".77" stop-color="#ffffc5" stop-opacity="0"/>
    </radialGradient>
  </defs>
  <circle class="st0" cx="632.83" cy="640.69" r="389.19"/>
  <circle class="st2" cx="632.83" cy="640.69" r="366.93"/>
  <g class="st3">
    <path d="M496.03,911.39c-7.51-2.93-11.89,6.28-15.56-.03-3.07-5.28-6.41-7.88-11.29-5.03-5.12,3-2.5,8.58-1.87,13.25.41,3.04.55,6.12.83,9.46,5.2-.43,7.85-9.96,13.67-4.53,5.73,5.34,10.57,2.27,18.47.1-8.01-3.24-15.3-6.33-4.25-13.23Z"/>
    <path d="M315.78,746.08c-5.3-.89-2.94,4.15-3.26,8.11,2.69,5.14-.05,15.01,9.52,16.67,4.82.84,4.76-5.39,4.16-8.67-1.22-6.63-1.93-14.68-10.42-16.11Z"/>
    <path d="M976.08,578.85c-.23-3.86-1.44-9.04-5.26-8.3-5.02.97-3.39,7.49-4.99,11.47,7.08,10.77,6.22-4.07,10.25-3.17Z"/>
    <path d="M976.05,697.06c2.71-14.24,4.39-28.68,6.5-43.04-6.15-6.47-10.32-13.66-8.44-23.04,5.05-.22,10.69-.36,4.79-8.23-6.38-8.52-6.41-17.89-6.18-27.59-2.12-1.08-4.24-2.15-6.36-3.23-1.23,6.53,5.27,13.12-.12,19.62,0,0,0,0,0,0h0c-2.49-.43-4.93-3.02-7.5-.17-2.89,4.25-.13,9.43-2.22,13.53.92-7.12.3-13.08-9.79-10.42-7.26-3.07-14.62-5.99-19.94-12.24-8.56-7.31-13.8-24.46-29.68-18.37-14.51-22.82-48.39-7.2-39.67-43.79,1.22-6.34-1.91-10.79-8.04-11.64-5.09-.7-7.55-3.76-9.8-7.4-2.68-4.33-4.16-12.13-10.86-8.5-9.34,4.93,2.69,19.97,7.95,27.94-14.22-7.78-16.77.32-19.87,7.58-2.52-1.68-5.34-2.62-8.28-3.27-19.49-3.63-12.06-20.64-15.99-32.04-.45-12.67-.54-25.31-11.15-34.9-5.85-5.21-13.78-7.23-18.96-13.26,4.22-5.6,9.15-9.34,17-3.32,17.23,14.26,15.42,2.08,14.19-14.44,7.02,6.62,13.28,10.57,19.02,1.39-14.65-5.16-21.48-20.13-35.15-27.32-12.09-6.36-27.81-8.44-34.53,2.32-3.99,6.39-5.79,5.65-11.15,2.76-9.06-4.88-13.5,3.18-17.46,8.67-5.39,7.46,4.55,7.99,7.1,11.83,2.56,3.84,9.22,3.08,11.73,7.96q-7.43,10.34-11.59,6.52c-13.85-12.67-29.55-11.27-45.75-5.97.74,14.4.6,28.96-15.9,37.02-5.07,2.45-11.58,9.75-7.35,18.56,12.28,1.67,18.62,7.74,16.26,20.97-.65,3.64.11,7.53.22,11.31,6.04,7.08,9.3,16.35,15.53,23.11-7.36.78-11.02-9.21-18.9-6.9-9.82,3.75-12,10.35-7.27,19.52,0,0,0,0,0,0-7.05-1.42-9.42-10.46-18.35-10.72.02,7.37-1.44,14.1-6.9,19.91-5.41,5.75,2.43,31.85,9.71,31.44,18.44-1.04,29.87,9.91,41.78,20.5,5.04,4.48,7.79,1.21,6.37-2.42-3.46-8.91,3.76-16.57,1.37-24.95,7.03-6.97,10.61,5.9,16.94,2.96-3.87-11.75-.83-14.48,13.87-12.5-.65-4.72-1.29-9.45-1.93-14.17,7.17.48,9.88,8.11,16.11,10.08,0,0,0,0,0,0,9.35,6.99,8.33,18.97,13.38,28.03-.21.1-.42.21-.63.33-6.43,10.31-3.94,19.72.64,30.41,7.36,17.18,22.13,16.49,36.23,17.72,10.59.93,12.83,4.06,5.68,12.63-5.02,6.02-10.01,15-2.99,19.97,7.22,5.12,16.15,17.62,27.38,5.28,5.76,3.6,3.23,12.3,7.64,15.32,9.62,6.6,5.36-11.12,13.4-9.12-.43.48-.76,1.15-.94,2.09,12.31,20.29-12.07,19.74-4.81,40.28-.2,7.16,14.16-2.47,11.06,9.73-.56,2.2-4.48,11.33,4.59,13.04,8.11,1.53,9.11-2.5,7.89-8.95-.07-.36,1.94-1.53,2.03-1.43,7.39,7.8,16.83-3.65,24.75,3-2.28,6.31-8.71,12.74-1.6,19.94,1.11-1,2.21-2.01,3.32-3.01,14.16,4.05,4.11-13.87,13.27-14.49,3.16,3.62-3.32,9.28,2.29,12.39,9.21-2.44,5.41-17.45,17.1-17.23-2.03-11.81-19.04-15.61-13.55-33.12-7.38,8-7.76,14.69-4.19,19.18,10.77,13.59-.96,12.46-8.53,14.36,0,0,0,0,0,0,0,0,0,0,0,0-26.96-14.98,7.85-38.01-7.45-49.22-11.51-5.75-22.71-17.2-37.88-9.13-2.04-6.15-11.31-8.23-11.79-11.84-2.71-20.61-1.25-41.24,6.65-60.88,1.16-2.88,5.64-3.64,6.96-2.22,9.27,10.04,20.68,4.82,31.27,4.93.34.8.59,1.58.66,2.35-2.59,15.82-3.55,31.1,8.15,44.61,4.64,5.36,11.02,9.29,10.8,19.25-.11,4.82,7.33,16.72,19.04,11,5.03-2.46,8.59-.16,11.32,3.29,9.2,14.57-24.89,15.2-4.64,47.45,2.99.93,3.99,8.26,9.42.9,10.89-14.77,22.94-28.36,23.48-48.26.15-5.55,3.14-11.23,7.98-15.4,6.38,8.85-7.24,18.15.95,25.7,1.02.89,4.37.23,5.9-.81,5.33-3.59,6.03-9.7,3.86-14.52-3.98-8.85-1.1-16.72.51-25.2ZM697.53,568.69c-1.91.36-3.76,1.14-5.52,2.47-.14-.02-.25-.03-.35-.02-.58-2.22-2.33-3.35-4.23-4.34,3.79-.39,7.24.03,10.1,1.89ZM687.34,587.82c.17-.95.07-1.92-.25-2.9,4.19,2.09,11.56.67,11.71,7.24-2.64-3.28-7.95-2.43-11.46-4.34ZM741.74,587.29c-.22.29-.44.57-.68.85-4.17,1.51-9.9,6.21-8.38-5.46.29-2.21-3.31-2.88-6.71-3.01.9-12.84,17.97,1.11,18.21-9.78,4.3,1.59,10.25,1.46,10.6,7.15-8.2-2.92-9.11,6.18-13.04,10.26ZM874.97,597.97c3.04-8.34,9.84-2.51,14.88-2.57-.08.83-.06,1.67.08,2.54-4.81-1.13-9.7-.25-14.96.03ZM888,627.46c4.87-6.96,6-15.44,6.38-24.24,6.16,6.22,1.68,18.24-6.38,24.24Z"/>
    <path d="M916.36,558.84c1.88,1.5,2.49,4.61,3.68,6.98,7.71,9.37,17.19,3.36,26.02,2.98,5.61-11.33,8.05-23.54,9.97-35.9-5-14.52-11.33-27.93-25.83-35.77-3.07-1.66-7.69-.63-9.27-5.27-3.21-9.4-9.67-7.34-16.3-4.3-1,6.02-3.89,11.18-8.16,15.32-9.29,9.02-5.02,15.54.42,25.61,6.44,11.92,9.6,22.48,19.46,30.34Z"/>
    <path d="M633.83,828.39c-5.8-7.74-26.09-14.68-10.8-30.96,0,0,0,0,0,0,0,0,0,0,0,0,1.19-1.04,2.38-2.08,3.57-3.12,1.41-5.03,3.26-10,4.12-15.12,1.1-6.55-3.88-12.12-8.68-9.82-13.25,6.34-15.12-2.91-18.58-11.05,0,0,0,0,0,0,1.6-3.14,5.77-8.35,1.29-9.45-13.28-3.25-12.5-18.94-23.56-24.07-5.4-2.51-9.97-7.87-9.71-15.16,12.95-4.18,27.91,6.84,41.69-6.78-12.35,4.98-14.7-1.76-16.07-9.75,9.09-10.06,10.05-14.59,25.58-9.05,1.3-5.38,6.42-10.75,1.87-16.28-6.64-8.06-11.37,3.28-17.48,2.42-.06-10.08,4.74-18.85,7.97-29.4-4.88,7.3-10.26-1.54-14.85,2.15-5.33-5.27.62-9.22,3.12-9.18,10.98.16,15.18-12.46,26.88-10.73-8.86-17.44-27.51-17.56-38.55-28.35,0,0,0,0,0,0-3.69-3.81-5.25-7.25.09-11.37,4.34-3.35,7.92-7.67,11.84-11.56h0c7.67-2.31,8.72-11.86,16-14.82-5.27-.31-10.54-.63-15.81-.94h0c-5.83.32-10.51-1.88-14.11-6.46-20.5-9.76-21.61-17.41-4.47-30.33,2.5-1.89,2.58-4.51,2.31-7.18.22-.06.44-.11.66-.17,10.41-9.96,27.45-7.73,36.6-19.98.62-5.51-3.08-7.92-6.81-10.3,10.54-5.41,12.24,8.14,18.71,11.44,4.46,2.23,9.09,3.85,14.17,3.66,10.47-3.8,12.15-11.07,8.13-20.58-7.66-13.8-6.79-33.06,1.71-39.75,2.37-1.87,10.71-2.75,6.31-5.13-5.57-3.02-2.83-10.83-8.39-10.73-4.03.07-7.45,3.21-10.05,7.16-2.31,3.52-.63,9.01-5.68,10.94-2.95-2-9.59,6.73-9.76-3.36-2.17-1.08-4.33-2.16-6.5-3.24-4.71-2.2-11.34-1.93-12.78-8.52-2.08-9.47-8.98-10.49-16.97-11.72-10.87-1.69-22.74,2.73-32.25-1.44-35.43-15.45-51.07,13.79-81.96,16.99-13.18,1.14-26.76,5.51-29.03,21.33-3.4,23.67-22.6,32.53-38.43,44.66-2.78-28.42,13.63-28.22,4.6-37.21,7.72-7.04,16.42-12.88,24.45-19.44,16.48-13.48,37.76-19.52,52.5-35.3,4.1-4.38,8.28-4.75,12.66-.41,5.24,2.56,6.88,14.38,14.76,8.48,10.37-7.76,23.89-6.85,33.79-14.73,7.61-6.05,16.39-7.52,25.91-7.64,22.67-.28,38.68,13.66,55.88,25.18,11.95,7.16,16.34-3.74,22.86-9.55,4.91-3.58,5.34-10.08,9.27-14.32,3.75,2.31,8.09,1.23,11.77-.72,6.8-3.6,12.35-1.52,18.18,1.56,8.61,2.67,14.27-7.18,22.77-5.69-2.08,7.94-2.3,16.39-10.93,20.62-3.11,1.52-5.56,5.56-2.02,7.6,8.14,4.7,16.51,10.02,26.92,6.77,4.94-1.55,7.63-3.68,4.1-8.89-3.82-5.65-1.68-13.24-3.54-17.87-4.58-11.46,1.91-23.93-5.18-34.37,0,0,.29-.11.29-.11-8.69,1.06-17.36-.06-26.03-.35-17.74-.61-37.61-9.65-49.56,12.55-6.71,2.51-18.52-18.13-21.1,4.59-.06.54-2.75-3.13-4.15-3.49-10.23-2.61-17.71-14.7-28.26-12.22-17.89,4.21-34.79,10.02-53.76,4.29-4.99-1.51-12.03,6.09-19.43,4.01-43.3,10.27-79.61,37.35-119.8,52.51-6.82-7.27,5.74-13.8-1.66-17.05-6.23-2.73-9.17,6.11-13.09,9.94-37.14,35.55-64.7,79-86.85,125.13,0,0,.01,0,.02,0,0,0,0,0-.02,0-9.12,8.69-6.25,22.57-13.83,31.93.11,5.3.22,10.6.33,15.9,3.91-1.34,7.5-2.96,10.3-5.24-2.82,4.48-7.02,8.24-10.36,12.45-1.14,15.25-2.96,30.49-3.12,45.75-.07,6.77-.08,14.03,9.11,18.83,3.06,1.6,14.7,11.62,10.37,17.99-10.56,15.6,16.44,10.24,18.07,39.75-5.25-2.72-5.01-11.29-13.54-9.21.76,3.75,4.84,6.46,2.69,11.34-3.92,8.9.83,13.7,8.15,20.13,36.53,30.2,14.08,40.83,46.51,67.72,14.52,2.44,1.7-12.1,8.83-14.11q-.66,10.65,10.12,14.12c33.26-2.6-7.66-15.44,3.28-21.07,9.22,6.32,21.13,16.18,30.18,5.58,7.28-8.53,8.65,1.1,12.49.06,0,0,0,0,0,0,.35,8.37,9.77,8.5,12.97,14.28-13.65,3.24,11.32,13.99-6.06,28.02-10.92-3.23-16.03.26-18.28,12.1-2.88,15.14,10.7,21.31,14.76,32.42-5.41.95-4.85,4.03-.89,5.27,5.68,1.77,11.03,2.73,13.39,9.32,3.59,10.03,8.78,6.02,13.83,1.11,0,0,0,0,0,0,11.05-.47,24.78-7.32,27.59,14.08.54-9.61,5.83-11.73,11.6-13.28,1.25,6.81,6.71,10.87,10.52,16.02,4.13,2.95,8.14.97,12.16-.32,4.17-2.23,6.21-13.38,13.35-3.19,1.57-.34,3.19-1.09,4.71-.94,11.2,1.09,13.04-8.84,12.51-14.69-1.83-11.48-17.91,4.78-31.22-5.16,11.97-7.95,21.96-19.31,38.17-7.59,2.51,1.82,18.05,11.96,21.83-4.74,1.05,1.2,2.09,2.39,3.14,3.59,8.83,1.97,24.25,12.87,14.01-10.71-1.46-3.36.69-4.86,6.19-4.99,8.43-.2,24.53,7.12,21.7-13.2,0,0,0,0,0,0,4.84-6.9,3.4-10.52-2.26-18.07ZM334.78,524.88c.78-2.46,4.44-6.89,7.21-4.69-2.73,1.09-5.1,2.69-7.21,4.69ZM347.76,585.24c-.37-.38-.74-.75-1.13-1.12.42-.05.84-.12,1.24-.2-.06.42-.1.86-.11,1.32ZM377.88,571.63c-.48,3.8-3.09,7.74-6.62,3.95,5.91-8.36,7.66-18.06,9.45-27.74,1.14,8-1.83,15.92-2.82,23.79ZM394.25,458.06c.66-1.44,1.63-2.39,3.52-1.92-1.21.58-2.38,1.23-3.52,1.92ZM431.33,780.69c1.57-.22,2.75.26,3.72,1.12-1.34-.18-2.57-.57-3.72-1.12ZM509.31,891.53c-.11-5.31-6.26-9.83-1.92-16.12,7.3,4.86,4.69,10.49,1.92,16.12ZM519.08,821.99c3.48,6.99,1.53,9.69-1.88,11.78-4.25-8.44-10.98-16.37-17.74-5.37-2.87,4.63-6.72,8.4-9.86,12.72.36-24.9,16.83-14.84,24.02-23.88,1.81-3.94,4.48-7.6,5.6-11.7,2.37-8.67-.4-11.77-7.56-9.22.08-.79.09-1.57.02-2.35,7.02,3.43,11.89-5.53,16.4,5.01-6.48,6.5-13.55,13.88-9.01,23.01ZM579.27,567.11c-2.77,5.63-4.45,9.7-4.85,13.46-1.03-.17-2.07-.13-3.1.11,2.08-3.63,3.59-8.21,7.95-13.58Z"/>
  </g>
  <ellipse class="st1" cx="632.83" cy="640.69" rx="632.83" ry="640.69"/>
</svg>