<svg id="Capa_1" xmlns="http://www.w3.org/2000/svg" viewBox="0 0 846.6 1824.09">
  <defs>
    <style>
      .s0 { fill: #5f4c4c; }
      .s1 { fill: #702526; }
      .s2 { fill: #fff; }
      .s3 { fill: #feeedc; }
      .s4 { fill: #604e4d; }
      .s5 { fill: none; }
      .s6 { fill: #8d7272; }
      .s7 { fill: #27304d; }
      .s8 { fill: #b13c3c; }
      .s9 { fill: #893636; }
      .s10 { fill: #796161; }
      .s11 { fill: #c0aaa5; }
      .s12 { fill: #e0676e; }
      .s13 { fill: #4f2a2a; }
      .s14 { fill: #e6d3c7; }
      .s15 { fill: #927772; }
      .s16 { fill: #b64546; }
    </style>
  </defs>
  <path class="s9" d="M530.88 810.15l43.99 161.32v-239.81h-45.94c.89 17.54 1.52 44.64 1.95 78.5Z"/>
  <path class="s9" d="M255.82 731.65v298.07l59.87-219.55c.42-33.89 1.06-60.97 1.95-78.52h-61.82Z"/>
  <path class="s9" d="M255.82 517.36v184.06h65.63c5.83-27.57 16.4-67.93 32.85-104.72 16.64-37.14 39.22-70.59 68.97-83.53v188.25h0v-188.22h0s0-.03 0-.03c29.75 12.94 52.34 46.39 68.97 83.53 0 0-.01 0-.02 0 0 .01 0 .02.01.03 16.45 36.78 27.02 77.13 32.85 104.69h49.76v-301.54H244.23v-30.23h330.64v-85.78C552.92 121.19 461.41 32.52 421.04.69c-48.53 17.56-85.49 60.94-112.82 109.12-31.08 54.88-49.56 115.82-58.23 151.41-4.4 17.9-6.45 106.43-7.1 226.71l12.92 29.41h-13.05v.02h13.07Z"/>
  <path class="s16" d="M574.87 369.64v-85.78C552.92 121.19 461.41 32.52 421.04.69c-20.4 7.38-38.75 19.34-55.21 34.29 27.65 32.15 60.86 59 87.62 94.44 48.14 63.77 58.73 133.34 57.13 240.22h64.29Z"/>
  <path class="s16" d="M574.87 701.42v-301.54h-65.01c-.94 29.73-2.55 62.18-4.39 97.93-2.03 39.6-5.03 75.91-8.72 109.37 13.91 33.8 23.08 69.27 28.36 94.24h49.76Z"/>
  <rect class="s1" x="244.23" y="369.64" width="330.64" height="30.23"/>
  <path class="s1" d="M317.64 731.65c.49-9.67 1.06-16.48 1.72-19.88.61-3.19 1.32-6.67 2.09-10.35h-65.63v30.23h61.82Z"/>
  <path class="s1" d="M528.93 731.65h45.94v-30.23h-49.76c.78 3.7 1.49 7.18 2.1 10.38.66 3.41 1.23 10.18 1.72 19.86Z"/>
  <polygon class="s1" points="423.28 731.65 423.29 731.65 423.29 701.42 423.28 701.42 423.28 702.13 423.28 731.65"/>
  <path class="s12" d="M574.87 283.86v687.61l18.26 66.95v-521.06l10.1-23c-.17-34.27-.45-66.04-.86-94.48-.15-10.54-.32-20.66-.51-30.23-1.14-57.73-2.97-97.13-5.73-108.42-8.66-35.59-27.15-96.53-58.29-151.41C510.17 61.06 472.68 17.21 423.29.06l-.23-.06-.23.06c-.58.23-1.21.4-1.79.64 40.38 31.83 131.88 120.5 153.83 283.17Z"/>
  <path class="s10" d="M590.77 1806.43c.13 0 .25-.04.38-.04h147.11l-11.04-36.43-124.79-.33c-3.78 10.78-9.35 29.08-11.66 36.79Z"/>
  <path class="s6" d="M590.77 1806.43c-4.69.21-8.47 4.07-8.47 8.81s3.98 8.85 8.85 8.85h151.18c4.87 0 8.85-3.98 8.85-8.85s-3.98-8.85-8.85-8.85h-151.18c-.13 0-.25.03-.38.04Z"/>
  <path class="s3" d="M635.93 517.36l-32.64-4.16h69.23l-5.75-143.26c-4.33-1.04-9.24.81-11.32 5.55l-52.23 118.88-10.1 23h42.8Z"/>
  <path class="s11" d="M717.03 771.76v-75.96h-123.91v75.96h123.91Z"/>
  <path class="s11" d="M718.58 1604.35c-.61-22.57-1.09-45.13-1.32-67.74l-124.14 25.39v42.41l.98-.06h124.47Z"/>
  <path class="s11" d="M735.69 1651.6v-23.68c0 7-1.49 16.15 0 23.68Z"/>
  <path class="s11" d="M717.03 672.92v-88.09h-123.91v88.09h123.91Z"/>
  <path class="s11" d="M720.6 1662.98c-.5-11.7-.98-23.39-1.37-35.06h-125.12l-.98-.06v35.18l.98-.06h126.49Z"/>
  <path class="s11" d="M717.03 542.14v-14.44l-81.11-10.34h-42.8v24.78h123.91Z"/>
  <path class="s11" d="M608.61 1095.23l108.42 107.52v-212.69h-123.91v48.36l15.49 56.81Z"/>
  <path class="s11" d="M717.03 974.58v-183.64h-123.91v183.64h123.91Z"/>
  <path class="s11" d="M728.98 1704.95c-2.37-5.13-4.76-10.3-6.11-15.79-.21-.86-.35-1.73-.52-2.6h-128.24c-1.56 0-3-.29-4.28-.81 0 0 0 0-.01 0l-32.95 83.78 45.57.12 124.79.33 46.07.12-.12-.31c-26.17-1.01-34.75-44.41-44.2-64.83Z"/>
  <path class="s0" d="M717.03 695.8v-22.88h-123.91v22.88h123.91Z"/>
  <path class="s0" d="M717.03 584.83v-42.69h-123.91v42.69h123.91Z"/>
  <path class="s0" d="M717.03 790.94v-19.18h-123.91v19.18h123.91Z"/>
  <path class="s0" d="M717.03 990.06v-15.48h-123.91v15.48h123.91Z"/>
  <path class="s14" d="M719.23 1627.92c-.26-7.86-.44-15.71-.65-23.57h-124.47l-.98.06c-2.89.23-5.43 1.5-7.34 3.41-2.14 2.08-3.47 5.08-3.47 8.32 0 6.18 4.74 11.26 10.8 11.73l.98.06h125.12Z"/>
  <path class="s14" d="M594.1 1686.56h128.24c-.91-4.83-1.18-9.78-1.4-14.69-.13-2.96-.22-5.91-.35-8.88h-126.49l-.98.06c-2.89.23-5.43 1.5-7.34 3.41-2.14 2.14-3.47 5.03-3.47 8.32 0 5.02 3.11 9.23 7.5 10.97 0 0 0 0 .01 0 1.27.52 2.72.81 4.28.81Z"/>
  <path class="s2" d="M603.29 513.2l32.64 4.16 81.11 10.34v675.05l18.66 18.5v-703.9l-62.33-141.87c-1.33-3-3.81-4.91-6.59-5.55l5.75 143.26h-69.23Z"/>
  <path class="s2" d="M717.26 1536.61c.23 22.61.7 45.18 1.32 67.74.21 7.86.39 15.71.65 23.57.39 11.67.87 23.36 1.37 35.06.13 2.96.21 5.91.35 8.88.22 4.92.49 9.86 1.4 14.69.16.87.31 1.74.52 2.6 1.35 5.49 3.74 10.66 6.11 15.79 9.45 20.42 18.02 63.82 44.2 64.83 1.77.07 3.62-.05 5.55-.39-11.98-27.15-23.95-54.3-35.93-81.45 7.73-4.8 8.45-9.67 6.45-14.39-2.29-5.4-8.13-10.62-11.11-15.37-1.22-1.94-1.98-4.18-2.45-6.57-1.49-7.54 0-16.68 0-23.68 3.24 0 6.24-1.33 8.32-3.46 2.14-2.08 3.47-5.08 3.47-8.32 0-6.53-5.26-11.79-11.79-11.79v-71.51l-18.43 3.77Z"/>
  <path class="s10" d="M110.88 1806.43c.13 0 .25-.04.38-.04h147.11l-11.03-36.41-124.8-.35c-3.78 10.78-9.35 29.09-11.66 36.8Z"/>
  <path class="s6" d="M110.88 1806.43c-4.69.21-8.47 4.07-8.47 8.81s3.98 8.85 8.85 8.85h151.17c4.87 0 8.85-3.98 8.85-8.85s-3.98-8.85-8.85-8.85H111.27c-.13 0-.25.03-.38.04Z"/>
  <path class="s3" d="M242.88 487.93l-49.4-112.43c-3.43-7.8-14.5-7.8-17.93 0l-62.32 141.84h142.57l-12.92-29.41Z"/>
  <rect class="s11" x="113.25" y="584.82" width="71.26" height="88.12"/>
  <polygon class="s11" points="184.52 990.04 113.25 990.04 113.25 1218.91 184.52 1148.23 184.52 990.04"/>
  <rect class="s11" x="113.25" y="790.93" width="71.26" height="183.62"/>
  <path class="s11" d="M231.44 1662.98c-.11-11.67-.23-23.34-.35-35.06h-116.86l-.98-.06v35.18l.98-.06h117.21Z"/>
  <rect class="s11" x="113.25" y="695.8" width="71.26" height="75.96"/>
  <rect class="s11" x="113.25" y="517.36" width="71.26" height="24.81"/>
  <path class="s11" d="M230.93 1604.35c.02-3.91.06-7.84.09-11.78l-117.77-33.22v45.06l.98-.06h116.69Z"/>
  <polygon class="s11" points="255.82 701.42 255.82 517.36 255.81 517.36 255.81 542.16 255.81 584.82 255.81 672.94 255.81 695.8 255.81 771.75 255.81 790.93 255.81 974.55 255.81 990.04 255.81 1029.79 255.82 1029.73 255.82 731.65 255.82 701.42"/>
  <polygon class="s15" points="255.81 542.16 255.81 517.36 242.75 517.36 184.52 517.36 184.52 542.16 255.81 542.16"/>
  <path class="s15" d="M229.94 1563.63c-.23-2.1-.66-4.34-1.12-6.63l-115.57-23.64h0v26l117.77 33.22c.08-9.69.03-19.42-1.08-28.95Z"/>
  <rect class="s15" x="184.52" y="584.82" width="71.29" height="88.12"/>
  <rect class="s15" x="184.52" y="790.93" width="71.29" height="183.62"/>
  <polygon class="s15" points="184.52 990.04 184.52 1148.23 237.96 1095.23 255.81 1029.79 255.81 990.04 184.52 990.04"/>
  <rect class="s15" x="184.52" y="695.8" width="71.29" height="75.96"/>
  <path class="s11" d="M235.6 1686.56h-121.37c-1.5 0-2.95-.29-4.28-.81l-32.98 83.76 45.57.13 124.8.35 36.38.1c-14.96-25.94-29.98-51.82-44.94-77.75-1.1-1.91-2.19-3.81-3.18-5.78Z"/>
  <polygon class="s0" points="255.81 695.8 255.81 672.94 184.52 672.94 113.25 672.94 113.23 672.94 113.23 695.8 113.25 695.8 184.52 695.8 255.81 695.8"/>
  <polygon class="s0" points="255.81 584.82 255.81 542.16 184.52 542.16 113.25 542.16 113.23 542.16 113.23 584.82 113.25 584.82 184.52 584.82 255.81 584.82"/>
  <polygon class="s0" points="255.81 790.93 255.81 771.75 184.52 771.75 113.25 771.75 113.23 771.75 113.23 790.93 113.25 790.93 184.52 790.93 255.81 790.93"/>
  <polygon class="s0" points="255.81 990.04 255.81 974.55 184.52 974.55 113.25 974.55 113.23 974.55 113.23 990.04 113.25 990.04 184.52 990.04 255.81 990.04"/>
  <path class="s14" d="M231.1 1627.92c-.06-6.29-.12-12.65-.17-19v-4.57h-116.69l-.98.06c-2.83.23-5.49 1.5-7.39 3.41-2.14 2.08-3.47 5.08-3.47 8.32 0 6.18 4.8 11.26 10.86 11.73l.98.06h116.86Z"/>
  <path class="s14" d="M235.6 1686.56c-.58-1.1-1.1-2.2-1.5-3.29-.64-1.44-1.15-2.95-1.56-4.51-.12-.46-.23-.98-.29-1.44-.75-3.7-.81-7.57-.81-11.32v-3.01h-117.21l-.98.06c-2.83.23-5.49 1.5-7.39 3.41-2.14 2.14-3.47 5.03-3.47 8.32 0 5.03 3.18 9.3 7.57 10.98 1.33.52 2.77.81 4.28.81h121.37Z"/>
  <path class="s2" d="M228.83 1556.99c.46 2.3.88 4.53 1.12 6.63 1.11 9.53 1.15 19.26 1.08 28.95-.03 3.94-.08 7.87-.09 11.78v4.57c.06 6.35.11 12.71.17 19 .11 11.73.23 23.4.35 35.06v3.01c0 3.75.06 7.62.81 11.32.06.46.17.98.29 1.44.4 1.56.92 3.06 1.56 4.51.4 1.1.92 2.2 1.5 3.29.98 1.96 2.08 3.87 3.18 5.78 14.96 25.94 29.98 51.82 44.94 77.75h9.71l-34.08-84.05c1.85-.64 3.47-1.62 4.79-2.95 2.14-2.14 3.47-5.03 3.47-8.32 0-6.53-5.32-11.79-11.79-11.79v-35.06c3.23 0 6.18-1.33 8.32-3.46 2.14-2.08 3.47-5.08 3.47-8.32 0-6.53-5.32-11.79-11.79-11.79v-41.84l-26.99-5.52Z"/>
  <path class="s14" d="M735.69 1532.84h.12l100.17-31.77v-22.3h-261.09c0 1.25 0 2.49 0 3.76 0 29.62-1.21 64.33-1.98 83.61l20.22-4.14 124.14-25.39 18.43-3.77Z"/>
  <path class="s14" d="M608.61 1095.23l-15.49-56.81-18.26-66.95-43.99-161.32s0 .04 0 .06l77.72 285.05 237.94 235.98v102.25h0v-102.27l-110.86-109.95-18.66-18.5-108.42-107.52Z"/>
  <path class="s14" d="M705.42 1439.08l110.16 3.76v-72.67l-216.8-231.12-67.18-195c.04 57.01-.16 119.84-.49 183.05h.5v11.8h-.56c-.31 56.06-.71 112.13-1.15 164.45h1.71v11.8h-1.81c-.19 22.93-.39 45.03-.59 66.04 28.11 14.16 39.67 35.83 43.06 49.34.28 1.12.52 2.54.75 4.09l132.4 4.46Z"/>
  <path class="s7" d="M835.97 1335.97l-232.68-228.12-72.01-255.57c.15 20.69.24 42.99.29 66.52h.04v11.8h-.02c0 4.45.01 8.93.01 13.45l67.18 195 216.8 231.12v72.67l-110.16-3.76-132.4-4.46c1.35 9.19 1.84 25.55 1.86 44.14h261.09v-142.8Z"/>
  <path class="s3" d="M423.29 918.79h29.59l12.08-202.56c-2.58-.76-5.25-2.87-7.47-4.63-9.47-7.45-22.12-9.01-34.2-9.47v-38.18c6.99-2.25 18.2.52 23.8 1.73 3.99.9 7.99 2.37 11.62 4.38-4.37-25.43-8.74-48.13-12.85-67.82-3.42 1.85-6.84 3.73-10.38 5.27-4.16 1.85-8.32 3-12.19 3.23v-97.53h0s0 188.22 0 188.22v217.37ZM443.18 775.11h-12.17v-8.85h12.17v8.85ZM443.18 759.5h-12.17v-8.85h12.17v8.85ZM461 775.11h-12.17v-8.85h12.17v8.85ZM461 759.5h-12.17v-8.85h12.17v8.85Z"/>
  <path class="s3" d="M423.29 1315.15v15.56c1.73 0 3.47.35 4.97.98l.99-16.55h-5.96Z"/>
  <polygon class="s3" points="440.46 1127.1 447.97 1001.14 445.32 1001.14 445.32 992.29 448.5 992.29 449.29 978.98 445.32 978.98 445.32 970.13 449.82 970.13 452.18 930.59 423.29 930.59 423.29 1127.1 440.46 1127.1"/>
  <polygon class="s3" points="423.29 1138.9 423.29 1303.35 429.95 1303.35 439.75 1138.9 423.29 1138.9"/>
  <path class="s2" d="M439.75 1138.9l-9.81 164.45h99.95c.43-52.32.84-108.39 1.15-164.45h-91.29ZM474.07 1202.71h-28.75v-8.85h28.75v8.85ZM474.07 1180.55h-28.75v-8.85h28.75v8.85ZM516.18 1202.71h-28.75v-8.85h28.75v8.85ZM516.18 1180.55h-28.75v-8.85h28.75v8.85Z"/>
  <path class="s2" d="M462.29 595.32c-5.82 1.3-11.13 4.07-16.42 6.92 4.11 19.69 8.48 42.39 12.85 67.82 6.14 3.41 11.24 8.4 13.45 14.97 1.1 3.29 1.39 6.76 1.62 10.22.4 5.83.46 11.9-1.85 17.22-.52 1.21-1.21 2.37-2.25 3.12-1.44 1.08-3.06 1.14-4.72.65l-12.08 202.56h78.68c-.05-23.53-.14-45.83-.29-66.52l-8.98-31.87v-.06l5.55-21.26 3.03 11.12s0-.04 0-.06c-.43-33.86-1.06-60.95-1.95-78.5-.49-9.67-1.06-16.45-1.72-19.86-.61-3.2-1.32-6.68-2.1-10.38-5.83-27.57-16.4-67.92-32.85-104.69 0-.01 0-.02-.01-.03-10.04-1.33-20.15-3.58-29.96-1.38Z"/>
  <path class="s2" d="M452.18 930.59l-2.36 39.54h24.25v8.85h-24.78l-.79 13.31h25.57v8.85h-26.1l-7.51 125.96h90.65c.33-63.21.53-126.04.49-183.05 0-4.53 0-9-.01-13.45h-79.41ZM516.18 1001.14h-28.75v-8.85h28.75v8.85ZM516.18 978.98h-28.75v-8.85h28.75v8.85Z"/>
  <path class="s2" d="M429.24 1315.15l-.99 16.55c1.5.69 2.89 1.62 4.04 2.77 2.31 2.31 3.75 5.55 3.75 9.07v24.95c42.45-4.15 72.33 2.22 93.16 12.71.2-21.01.39-43.11.59-66.04h-100.56Z"/>
  <path class="s7" d="M435.48 607.5c3.54-1.54 6.96-3.42 10.38-5.27 5.29-2.85 10.6-5.62 16.42-6.92 9.81-2.19 19.92.05 29.96 1.38 0 0 .01 0 .02 0-16.64-37.14-39.23-70.59-68.97-83.53v97.57c3.87-.23 8.03-1.39 12.19-3.23Z"/>
  <path class="s7" d="M469.68 715.58c1.04-.75 1.73-1.9 2.25-3.12 2.31-5.32 2.25-11.38 1.85-17.22-.23-3.47-.52-6.93-1.62-10.22-2.21-6.57-7.31-11.56-13.45-14.97-3.63-2.01-7.63-3.48-11.62-4.38-5.6-1.21-16.81-3.99-23.8-1.73v38.18c12.07.46 24.72 2.02 34.2 9.47 2.22 1.76 4.89 3.87 7.47 4.63 1.65.49 3.28.44 4.72-.65Z"/>
  <path class="s11" d="M534.82 1622.28c.78 1.44 1.77 2.73 2.62 4.08 4.56 7.34 3.7 16.58 2.31 25.19h10.63c9.99 0 18.08-8.09 18.08-18.08 0-4.97-2.02-9.53-5.31-12.77-2.53-2.57-5.87-4.33-9.58-4.99v6.57h-18.75Z"/>
  <path class="s11" d="M533.51 1636.53c-1.15-6-4.61-11.82-10.2-14.25h-87.25v-1.7s0 0 0 0v25.76c3.29 3.18 7.74 5.2 12.65 5.2h84.8c.63-5.03.98-10.11 0-15.02Z"/>
  <path class="s10" d="M532.7 1592.34c.06 6.58.11 13.11.17 19.7 0 1.1.06 2.25.11 3.35.12 2.14.52 4.27 1.44 6.24.11.23.26.43.38.65h18.75v-41.32h-20.64c.44 3.88-.25 8.9-.22 11.38Z"/>
  <path class="s10" d="M436.06 1622.28h87.25s-.02-.01-.03-.01c-.52-.23-.69-3.18-.64-6.87 0-5.72.4-13.17.35-14.56-.06-6.53-.46-13.11-.23-19.58 0-.1.03-.19.03-.29h-86.73v41.32Z"/>
  <path class="s2" d="M537.44 1626.36c-.85-1.35-1.84-2.65-2.62-4.08-.12-.22-.28-.42-.38-.65-.92-1.97-1.33-4.1-1.44-6.24-.06-1.1-.11-2.25-.11-3.35-.06-6.58-.12-13.11-.17-19.7-.04-2.48.66-7.51.22-11.38h-10.12c0 .1-.03.19-.03.29-.23 6.47.17 13.05.23 19.58.06 1.39-.35 8.84-.35 14.56-.06 3.7.12 6.64.64 6.87.01 0 .02 0 .03.01 5.59 2.43 9.04 8.26 10.2 14.25.98 4.91.63 9.99 0 15.02h6.24c1.39-8.61 2.25-17.85-2.31-25.19Z"/>
  <path class="s11" d="M560.2 1570.79c1.1-33.33.87-66.72-.58-100.05-.88-20.32-7.37-46.02-20.33-62.11-10.55-13.1-26.51-20.94-42.89-24.75-19.81-4.6-39.52-3.32-59.54-3.32l-.81.06v200.34h124.25c-.23-2.37-.17-7.8-.11-10.17Z"/>
  <path class="s11" d="M574.88 1482.53c-.09 44.15-2.62 98.43-2.62 98.43 0 0 .27-5.69.64-14.82.77-19.28 1.97-53.99 1.98-83.61Z"/>
  <path class="s2" d="M574.88 1482.53c0-1.27 0-2.51 0-3.76-.02-18.59-.52-34.95-1.86-44.14-.23-1.56-.47-2.97-.75-4.09-3.39-13.51-14.95-35.18-43.06-49.34-20.82-10.49-50.71-16.86-93.16-12.71v12.13l.81-.06c20.02 0 39.73-1.28 59.54 3.32 16.38 3.8 32.34 11.65 42.89 24.75 12.96 16.09 19.45 41.79 20.33 62.11 1.44 33.33 1.68 66.72.58 100.05-.06 2.37-.12 7.8.11 10.17h11.96s2.52-54.28 2.62-98.43Z"/>
  <path class="s14" d="M271.72 1478.74H.02v-45.25h-.02s0 76.69 0 76.69l113.25 23.17h0s115.57 23.64 115.57 23.64l26.99 5.52 17.87 3.66c-.81-20.11-2.08-57.03-1.98-87.43Z"/>
  <polygon class="s14" points="234.41 1153.27 30.98 1370.14 30.98 1442.81 140.47 1439.1 234.41 1153.27"/>
  <path class="s11" d="M314.97 1303.35h1.71c-.43-52.32-.84-108.4-1.15-164.45h-.56v-11.8h.5c-.33-63.23-.53-126.08-.49-183.11l-67.19 195.02-13.38 14.26-93.94 285.83 133.64-4.52c.08-.36.15-.77.23-1.09 3.38-13.51 14.94-35.19 43.06-49.35-.2-21.87-.41-45-.61-68.99h-1.81v-11.8Z"/>
  <path class="s7" d="M271.72 1478.74c.06-19.49.7-36.23 2.39-44.16l-133.64 4.52-109.49 3.7v-72.67l203.42-216.87 13.38-14.26 67.19-195.02c0-4.51 0-8.97.01-13.4h-.02v-11.8h.04c.08-40.51.29-77.44.68-108.62l-59.87 219.55-.02.06-17.84 65.44-53.44 53-71.26 70.68L.02 1331.2v147.54h271.69Z"/>
  <path class="s3" d="M410.52 1343.54c0-7.04 5.71-12.82 12.76-12.82v-15.56h-106.51c.2 24 .41 47.12.61 68.99 20.82-10.48 50.69-16.85 93.13-12.67v199.7h0v-227.63Z"/>
  <path class="s3" d="M315.53 1138.9c.31 56.05.71 112.13 1.15 164.45h106.6v-164.45h-107.75ZM328.19 1171.7h28.75v8.85h-28.75v-8.85ZM328.19 1202.71v-8.85h28.75v8.85h-28.75ZM399.05 1202.71h-28.75v-8.85h28.75v8.85ZM370.3 1180.55v-8.85h28.75v8.85h-28.75Z"/>
  <path class="s3" d="M315.47 1127.1h107.81v-196.51h-108.29c0 4.43 0 8.9-.01 13.4-.04 57.03.16 119.88.49 183.11ZM370.3 970.13h28.75v8.85h-28.75v-8.85ZM370.3 992.29h28.75v8.85h-28.75v-8.85ZM328.19 970.13h28.75v8.85h-28.75v-8.85ZM328.19 992.29h28.75v8.85h-28.75v-8.85Z"/>
  <path class="s3" d="M423.28 918.79v-216.67c-12.07.46-24.72 2.02-34.2 9.47-3.64 2.89-8.49 6.76-12.19 3.99-1.04-.75-1.73-1.9-2.25-3.12-2.31-5.32-2.25-11.38-1.85-17.22.23-3.47.52-6.93 1.62-10.22 3.52-10.46 14.32-16.93 25.07-19.35 5.6-1.21 16.81-3.99 23.8-1.73v-53.2c-3.87-.23-8.03-1.39-12.19-3.23-9.01-3.93-17.22-10.05-26.81-12.19-9.82-2.2-19.93.06-29.98 1.39-16.46 36.79-27.02 77.15-32.85 104.72-.78 3.69-1.48 7.16-2.09 10.35-.66 3.41-1.23 10.21-1.72 19.88-.89 17.55-1.53 44.63-1.95 78.52-.39 31.18-.61 68.11-.68 108.62h108.28ZM393.7 775.11h-12.17v-8.85h12.17v8.85ZM393.7 759.5h-12.17v-8.85h12.17v8.85ZM411.53 775.11h-12.17v-8.85h12.17v8.85ZM411.53 759.5h-12.17v-8.85h12.17v8.85Z"/>
  <path class="s7" d="M384.29 595.32c9.59 2.14 17.79 8.26 26.81 12.19 4.16 1.85 8.32 3 12.19 3.23v-97.57c-29.75 12.94-52.34 46.39-68.97 83.53 10.05-1.33 20.16-3.58 29.98-1.39Z"/>
  <path class="s7" d="M399.48 665.68c-10.75 2.43-21.55 8.9-25.07 19.35-1.1 3.29-1.39 6.76-1.62 10.22-.4 5.83-.46 11.9 1.85 17.22.52 1.21 1.21 2.37 2.25 3.12 3.7 2.77 8.55-1.1 12.19-3.99 9.47-7.45 22.12-9.01 34.2-9.47v-38.18c-6.99-2.25-18.2.52-23.8 1.73Z"/>
  <path class="s11" d="M293.01 1615.72c-8.45 1.51-14.87 8.86-14.87 17.75 0 9.98 8.09 18.07 18.07 18.07h101.64c4.94 0 9.4-1.99 12.66-5.2v-24.06h-117.5v-6.56Z"/>
  <path class="s15" d="M293.01 1615.72c-8.45 1.51-14.87 8.86-14.87 17.75 0 9.98 8.09 18.07 18.07 18.07h101.64c4.94 0 9.4-1.99 12.66-5.2v-24.06h-117.5v-6.56Z"/>
  <polygon class="s10" points="293.01 1580.98 293.01 1615.72 293.01 1622.28 410.51 1622.28 410.51 1620.59 410.51 1580.98 293.01 1580.98"/>
  <polygon class="s4" points="293.01 1615.72 293.01 1622.28 410.51 1622.28 410.51 1620.59 410.51 1580.98 293.01 1580.98 293.01 1615.72"/>
  <path class="s11" d="M410.51 1371.46c-42.43-4.17-72.31 2.19-93.13 12.67-28.12 14.16-39.68 35.85-43.06 49.35-.08.32-.15.73-.23 1.09-1.68 7.94-2.32 24.67-2.39 44.16-.1 30.4 1.17 67.32 1.98 87.43.37 9.13.64 14.81.64 14.81h136.18v-209.52Z"/>
  <path class="s15" d="M274.33 1580.98h136.18v-209.52c-14.5-1.43-27.52-1.62-39.23-.84l-97.32 201.95c.22 5.3.37 8.41.37 8.41Z"/>
  <polygon class="s2" points="846.55 1331.23 608.6 1095.25 530.88 810.21 527.85 799.08 522.3 820.34 522.3 820.4 531.28 852.28 603.29 1107.85 835.97 1335.97 835.97 1478.77 835.97 1501.07 735.81 1532.84 846.6 1510.19 846.6 1433.48 846.55 1433.48 846.55 1433.48 846.55 1331.23"/>
  <path class="s3" d="M426.24 1666.51v-330.83c0-1.62.81-3.12 2.02-3.99-1.5-.64-3.24-.98-4.97-.98 0 0 0 0 0 0-7.04 0-12.76 5.78-12.76 12.82v315.12c0 7.05 5.72 12.77 12.76 12.77 1.73 0 3.47-.35 4.97-.98-1.21-.81-2.02-2.31-2.02-3.93Z"/>
  <path class="s2" d="M436.06 1580.96v-237.42c0-3.52-1.44-6.76-3.75-9.07-1.16-1.15-2.54-2.08-4.04-2.77-1.21.87-2.02 2.37-2.02 3.99v330.83c0 1.62.81 3.12 2.02 3.93 4.56-1.96 7.8-6.47 7.8-11.78v-77.7Z"/>
  <rect class="s13" x="431.01" y="750.65" width="12.17" height="8.85"/>
  <rect class="s13" x="448.83" y="750.65" width="12.17" height="8.85"/>
  <rect class="s13" x="431.01" y="766.26" width="12.17" height="8.85"/>
  <rect class="s13" x="448.83" y="766.26" width="12.17" height="8.85"/>
  <rect class="s13" x="381.54" y="750.65" width="12.17" height="8.85"/>
  <rect class="s13" x="399.36" y="750.65" width="12.17" height="8.85"/>
  <rect class="s13" x="381.54" y="766.26" width="12.17" height="8.85"/>
  <rect class="s13" x="399.36" y="766.26" width="12.17" height="8.85"/>
  <polygon class="s14" points="423.28 930.59 423.29 930.59 452.18 930.59 531.59 930.59 531.61 930.59 531.61 918.79 531.57 918.79 452.88 918.79 423.29 918.79 423.28 918.79 315.01 918.79 314.97 918.79 314.97 930.59 314.99 930.59 423.28 930.59"/>
  <polygon class="s14" points="440.46 1127.1 423.29 1127.1 423.28 1127.1 315.47 1127.1 314.97 1127.1 314.97 1138.9 315.53 1138.9 423.28 1138.9 423.29 1138.9 439.75 1138.9 531.05 1138.9 531.61 1138.9 531.61 1127.1 531.11 1127.1 440.46 1127.1"/>
  <polygon class="s14" points="429.24 1315.15 529.8 1315.15 531.61 1315.15 531.61 1303.35 529.9 1303.35 429.95 1303.35 423.29 1303.35 423.28 1303.35 316.68 1303.35 314.97 1303.35 314.97 1315.15 316.77 1315.15 423.28 1315.15 423.29 1315.15 429.24 1315.15"/>
  <polygon class="s11" points="445.32 978.98 449.29 978.98 474.07 978.98 474.07 970.13 449.82 970.13 445.32 970.13 445.32 978.98"/>
  <rect class="s11" x="487.43" y="970.13" width="28.75" height="8.85"/>
  <polygon class="s11" points="445.32 1001.14 447.97 1001.14 474.07 1001.14 474.07 992.29 448.5 992.29 445.32 992.29 445.32 1001.14"/>
  <rect class="s11" x="487.43" y="992.29" width="28.75" height="8.85"/>
  <rect class="s11" x="445.32" y="1171.7" width="28.75" height="8.85"/>
  <rect class="s11" x="487.43" y="1171.7" width="28.75" height="8.85"/>
  <rect class="s11" x="445.32" y="1193.86" width="28.75" height="8.85"/>
  <rect class="s11" x="487.43" y="1193.86" width="28.75" height="8.85"/>
  <rect class="s11" x="328.19" y="970.13" width="28.75" height="8.85"/>
  <rect class="s11" x="370.3" y="970.13" width="28.75" height="8.85"/>
  <rect class="s11" x="328.19" y="992.29" width="28.75" height="8.85"/>
  <rect class="s11" x="370.3" y="992.29" width="28.75" height="8.85"/>
  <rect class="s11" x="328.19" y="1171.7" width="28.75" height="8.85"/>
  <rect class="s11" x="370.3" y="1171.7" width="28.75" height="8.85"/>
  <rect class="s11" x="328.19" y="1193.86" width="28.75" height="8.85"/>
  <rect class="s11" x="370.3" y="1193.86" width="28.75" height="8.85"/>
</svg>
